<svg width="300" height="202" viewBox="0 0 300 202" fill="none" xmlns="http://www.w3.org/2000/svg">
<path d="M176.161 127.842C177.336 128.37 180.502 128.732 180.509 128.732C180.516 128.732 180.243 127.308 180.204 127.218C179.805 126.195 178.093 124.363 176.26 124.29C175.956 124.282 175.653 124.317 175.371 124.391C175.089 124.465 174.834 124.576 174.622 124.718C174.411 124.86 174.249 125.03 174.145 125.215C174.042 125.401 174.001 125.598 174.023 125.795C174.076 126.629 175.158 127.386 176.161 127.842Z" fill="#263238"/>
<path d="M175.424 133.896C176.752 134.197 179.699 134.034 179.938 134.017C180.081 135.12 180.336 136.216 180.702 137.298C180.914 137.93 181.153 138.558 181.405 139.19C181.226 138.914 181.06 138.665 181.027 138.635C180.224 137.71 177.827 136.24 176.028 136.485C175.732 136.53 175.453 136.616 175.212 136.735C174.97 136.855 174.769 137.007 174.624 137.18C174.479 137.353 174.391 137.544 174.368 137.741C174.345 137.938 174.385 138.135 174.488 138.321C174.873 139.117 176.227 139.663 177.376 139.929C178.524 140.196 181.087 140.088 181.764 140.054C181.863 140.299 181.956 140.54 182.062 140.781C182.554 141.937 183.052 143.09 183.483 144.221C183.642 144.621 183.768 145.021 183.901 145.421C183.735 145.175 183.596 144.969 183.569 144.939C182.766 144.019 180.37 142.544 178.571 142.789C178.275 142.835 177.997 142.921 177.756 143.04C177.515 143.16 177.315 143.312 177.17 143.485C177.024 143.658 176.937 143.849 176.913 144.045C176.889 144.242 176.929 144.439 177.03 144.625C177.415 145.425 178.77 145.967 179.925 146.233C181.08 146.5 183.383 146.405 184.187 146.367C184.3 146.797 184.412 147.188 184.499 147.592C184.545 147.867 184.618 148.13 184.645 148.409C184.671 148.689 184.705 148.955 184.738 149.226C184.771 149.747 184.804 150.284 184.817 150.791C184.817 151.148 184.817 151.484 184.817 151.823C184.671 151.424 184.359 150.641 184.326 150.576C183.742 149.587 181.717 147.897 179.885 147.958C179.581 147.973 179.286 148.03 179.019 148.125C178.752 148.22 178.519 148.35 178.335 148.507C178.15 148.664 178.019 148.845 177.95 149.037C177.881 149.229 177.875 149.428 177.933 149.622C178.126 150.447 179.341 151.123 180.416 151.497C181.598 151.927 184.466 152.043 184.817 152.056C184.817 152.619 184.817 153.165 184.817 153.681C184.784 154.73 184.718 155.672 184.638 156.485L185.813 156.635C185.866 155.775 185.906 154.799 185.906 153.69C185.906 153.118 185.906 152.507 185.906 151.884C186.803 151.772 187.689 151.629 188.561 151.454C189.285 152.215 191.409 153.277 191.682 153.41C191.204 153.879 190.732 154.335 190.281 154.756C189.411 155.565 188.608 156.278 187.884 156.906L189.146 157.07C189.77 156.502 190.473 155.861 191.177 155.156C191.662 154.679 192.173 154.167 192.684 153.634C193.009 153.724 195.665 154.447 197.006 154.425C198.227 154.425 199.781 154.158 200.531 153.479C200.716 153.323 200.849 153.143 200.92 152.952C200.992 152.76 201 152.561 200.945 152.367C200.89 152.173 200.773 151.989 200.601 151.827C200.429 151.664 200.206 151.527 199.947 151.424C198.353 150.83 195.373 151.75 194.158 152.464C194.091 152.503 193.394 153.015 192.963 153.346L193.587 152.692C194.005 152.262 194.403 151.793 194.835 151.307L195.426 150.585C195.631 150.344 195.804 150.078 195.997 149.82C196.421 149.222 196.806 148.598 197.178 147.966C197.776 148.203 199.933 149.028 201.161 149.127C202.389 149.226 203.956 149.127 204.859 148.538C205.08 148.402 205.254 148.238 205.37 148.055C205.486 147.872 205.541 147.676 205.531 147.479C205.522 147.282 205.448 147.088 205.315 146.91C205.182 146.733 204.993 146.575 204.759 146.448C203.332 145.709 200.166 146.324 198.785 146.908C198.698 146.943 197.789 147.437 197.304 147.713C197.517 147.33 197.736 146.951 197.935 146.564C198.513 145.438 199.044 144.285 199.581 143.124C199.741 142.772 199.913 142.423 200.079 142.075C200.292 142.161 202.828 143.172 204.188 143.283C205.403 143.387 206.99 143.283 207.893 142.694C208.113 142.558 208.286 142.394 208.401 142.212C208.516 142.03 208.571 141.834 208.561 141.637C208.552 141.44 208.479 141.247 208.346 141.07C208.214 140.893 208.026 140.736 207.793 140.609C206.359 139.865 203.193 140.48 201.819 141.065C201.719 141.112 200.418 141.817 200.099 142.011C200.471 141.241 200.849 140.475 201.268 139.731C201.836 138.725 202.501 137.743 203.259 136.79C203.359 136.833 205.994 137.895 207.388 138.011C208.603 138.115 210.19 138.011 211.093 137.422C211.312 137.286 211.486 137.121 211.601 136.939C211.716 136.756 211.771 136.56 211.761 136.363C211.752 136.166 211.679 135.972 211.546 135.795C211.414 135.617 211.225 135.46 210.993 135.332C209.559 134.593 206.392 135.208 205.018 135.793C204.912 135.84 203.511 136.601 203.272 136.751C203.319 136.7 203.359 136.64 203.405 136.584C204.204 135.643 205.133 134.75 206.18 133.918C206.744 133.453 207.329 133.028 207.913 132.628C208.371 132.86 210.488 133.918 211.723 134.094C212.958 134.27 214.505 134.3 215.507 133.771C215.749 133.652 215.949 133.501 216.094 133.328C216.239 133.155 216.327 132.964 216.351 132.767C216.374 132.571 216.334 132.374 216.232 132.188C216.13 132.002 215.969 131.833 215.759 131.69C214.465 130.852 211.212 131.234 209.785 131.72C209.705 131.746 208.948 132.073 208.404 132.318C208.669 132.137 208.942 131.948 209.201 131.78C210.176 131.144 211.132 130.598 211.982 130.121C212.473 129.854 212.925 129.618 213.35 129.398C213.98 129.471 216.536 129.751 217.751 129.557C218.966 129.364 220.367 128.912 220.878 128.143C221.007 127.964 221.077 127.77 221.083 127.573C221.089 127.376 221.031 127.18 220.913 126.998C220.795 126.817 220.619 126.653 220.396 126.518C220.174 126.384 219.911 126.281 219.623 126.216C217.877 125.863 215.262 127.171 214.312 128.039C214.233 128.112 213.164 129.377 213.197 129.381H213.23C212.819 129.587 212.374 129.811 211.902 130.06C211.033 130.525 210.057 131.054 209.055 131.682C207.962 132.347 206.931 133.053 205.968 133.797C204.879 134.625 203.908 135.514 203.067 136.455C203.068 136.466 203.068 136.478 203.067 136.489C203.179 136.149 203.452 135.199 203.458 135.117C203.571 134.06 202.828 131.974 201.122 131.535C200.836 131.467 200.531 131.439 200.228 131.453C199.924 131.466 199.628 131.521 199.359 131.613C199.091 131.706 198.855 131.834 198.668 131.99C198.481 132.145 198.346 132.324 198.274 132.516C197.915 133.32 198.579 134.257 199.316 134.89C200.146 135.603 202.768 136.532 202.974 136.61C202.152 137.58 201.433 138.586 200.823 139.62C200.458 140.222 200.119 140.832 199.794 141.452C199.88 141.155 199.953 140.888 199.953 140.85C200.066 139.796 199.322 137.71 197.616 137.267C197.331 137.199 197.026 137.171 196.722 137.185C196.419 137.198 196.123 137.253 195.854 137.345C195.585 137.438 195.35 137.566 195.163 137.722C194.976 137.877 194.841 138.056 194.768 138.248C194.41 139.052 195.074 139.989 195.811 140.622C196.548 141.254 198.771 142.084 199.356 142.294C199.236 142.531 199.11 142.767 198.991 143.008C198.42 144.148 197.849 145.287 197.245 146.392C197.026 146.784 196.793 147.162 196.581 147.541C196.654 147.278 196.714 147.055 196.714 147.02C196.826 145.967 196.083 143.881 194.383 143.438C194.097 143.371 193.792 143.343 193.489 143.357C193.185 143.371 192.889 143.425 192.62 143.518C192.351 143.61 192.115 143.738 191.927 143.893C191.739 144.048 191.603 144.227 191.529 144.419C191.177 145.223 191.841 146.16 192.571 146.792C193.301 147.424 195.313 148.173 196.017 148.426C195.758 148.813 195.505 149.196 195.233 149.562C195.034 149.807 194.875 150.056 194.656 150.297L194.038 151.011C193.62 151.441 193.195 151.918 192.77 152.348L191.907 153.208C192.126 152.821 192.531 152.056 192.571 151.991C192.829 151.074 192.721 150.13 192.259 149.248C192.297 149.146 192.32 149.042 192.326 148.938C192.347 148.742 192.305 148.544 192.201 148.359C192.097 148.174 191.935 148.005 191.724 147.863C191.513 147.721 191.258 147.61 190.977 147.536C190.695 147.461 190.392 147.427 190.088 147.433C188.256 147.51 186.55 149.342 186.145 150.37C186.145 150.43 185.979 151.105 185.899 151.531C185.899 151.277 185.899 151.028 185.866 150.766C185.833 150.245 185.78 149.725 185.727 149.166L185.607 148.349C185.574 148.078 185.488 147.79 185.428 147.51C185.275 146.857 185.063 146.199 184.837 145.541C185.541 145.541 188.037 145.438 189.139 145.111C190.241 144.784 191.482 144.118 191.728 143.296C191.8 143.103 191.807 142.902 191.749 142.707C191.692 142.511 191.571 142.326 191.394 142.164C191.218 142.001 190.99 141.864 190.726 141.763C190.462 141.662 190.168 141.598 189.863 141.576C188.037 141.469 185.919 143.111 185.282 144.088C185.242 144.148 184.91 144.883 184.738 145.287C184.592 144.892 184.452 144.496 184.286 144.1C183.808 142.957 183.271 141.808 182.74 140.66L182.262 139.607C182.514 139.607 185.488 139.542 186.723 139.147C187.818 138.798 189.066 138.158 189.312 137.332C189.382 137.139 189.389 136.938 189.331 136.743C189.273 136.548 189.151 136.363 188.975 136.201C188.799 136.038 188.572 135.902 188.308 135.8C188.045 135.699 187.751 135.635 187.446 135.612C185.621 135.509 183.503 137.151 182.866 138.128C182.819 138.201 182.335 139.258 182.235 139.529C181.89 138.755 181.571 137.981 181.272 137.212C180.884 136.171 180.6 135.115 180.423 134.051C180.542 134.051 183.642 133.995 184.91 133.591C186.006 133.243 187.247 132.598 187.493 131.776C187.563 131.583 187.57 131.383 187.512 131.188C187.455 130.993 187.334 130.809 187.159 130.646C186.983 130.484 186.756 130.347 186.494 130.246C186.231 130.144 185.938 130.079 185.634 130.056C183.808 129.953 181.691 131.596 181.053 132.572C181 132.649 180.482 133.784 180.39 133.995C180.39 133.931 180.356 133.87 180.35 133.806C180.215 132.736 180.231 131.661 180.396 130.594C180.469 130 180.595 129.441 180.735 128.895C181.319 128.921 183.968 129.033 185.169 128.753C186.371 128.474 187.665 127.932 188.044 127.132C188.144 126.946 188.182 126.748 188.156 126.552C188.131 126.356 188.041 126.165 187.894 125.993C187.747 125.82 187.545 125.67 187.302 125.551C187.059 125.433 186.78 125.349 186.484 125.304C184.691 125.068 182.308 126.552 181.505 127.476C181.465 127.528 181.106 128.069 180.841 128.465C180.907 128.22 180.974 127.966 181.047 127.734C181.319 126.874 181.657 126.057 181.956 125.356C182.135 124.956 182.308 124.599 182.481 124.268C183.071 124.1 185.441 123.408 186.291 122.823C187.141 122.238 187.924 121.353 187.692 120.527C187.647 120.334 187.541 120.15 187.38 119.985C187.219 119.82 187.007 119.679 186.757 119.57C186.507 119.462 186.225 119.388 185.929 119.353C185.633 119.319 185.329 119.325 185.036 119.37C183.277 119.697 182.215 121.727 182.162 122.785C182.162 122.875 182.341 124.311 182.374 124.303H182.408C182.242 124.621 182.062 124.965 181.877 125.343C181.551 126.044 181.213 126.835 180.881 127.713C180.541 128.658 180.284 129.616 180.111 130.581C179.912 131.661 179.86 132.75 179.958 133.836C179.958 133.836 179.958 133.862 179.958 133.875C179.765 133.552 179.175 132.653 179.115 132.585C178.305 131.664 175.909 130.189 174.116 130.435C173.82 130.481 173.543 130.566 173.301 130.686C173.06 130.806 172.86 130.957 172.715 131.131C172.57 131.304 172.483 131.495 172.459 131.691C172.435 131.887 172.475 132.085 172.576 132.271C172.921 133.088 174.275 133.634 175.424 133.896Z" fill="#263238"/>
<path d="M207.919 132.413C207.919 132.413 208.908 131.123 208.955 131.041C209.493 130.039 209.619 127.902 208.165 127.171C207.917 127.056 207.635 126.977 207.337 126.937C207.039 126.898 206.731 126.9 206.434 126.943C206.137 126.986 205.858 127.069 205.614 127.187C205.37 127.305 205.167 127.455 205.018 127.627C204.354 128.34 204.6 129.347 205.051 130.095C205.583 130.976 207.919 132.408 207.919 132.413Z" fill="#263238"/>
<path d="M108.043 46.9944C109.298 47.1105 112.026 46.5644 112.026 46.5644C112.026 46.5644 110.944 45.5066 110.864 45.4464C109.915 44.7411 107.446 43.7263 105.959 44.1563C105.715 44.2294 105.498 44.3348 105.321 44.4658C105.144 44.5967 105.011 44.7502 104.932 44.9164C104.852 45.0826 104.828 45.2578 104.859 45.4305C104.891 45.6033 104.978 45.7698 105.116 45.9194C105.66 46.573 106.981 46.8912 108.043 46.9944Z" fill="#263238"/>
<path d="M111.177 51.9567C112.378 51.8578 114.629 50.9634 114.808 50.8946C115.592 51.7278 116.464 52.5252 117.417 53.2812C117.968 53.7112 118.539 54.1627 119.123 54.5927C118.811 54.4207 118.532 54.2702 118.459 54.253C117.264 53.7327 114.476 53.1866 113.201 53.823C112.996 53.9353 112.829 54.0742 112.712 54.2308C112.595 54.3873 112.53 54.5581 112.521 54.732C112.513 54.9059 112.56 55.0791 112.662 55.2403C112.763 55.4014 112.915 55.5471 113.108 55.6678C113.905 56.1967 115.306 56.2784 116.374 56.1924C117.443 56.1064 119.402 55.3668 119.906 55.169C120.132 55.3324 120.358 55.5001 120.57 55.6635C121.665 56.4461 122.761 57.2287 123.803 58.0157C124.168 58.2952 124.513 58.5747 124.858 58.8757C124.58 58.7209 124.347 58.5962 124.307 58.579C123.106 58.0587 120.324 57.5125 119.05 58.149C118.844 58.2608 118.676 58.3996 118.559 58.5562C118.441 58.7128 118.375 58.8838 118.367 59.0579C118.358 59.232 118.406 59.4053 118.508 59.5666C118.609 59.7278 118.762 59.8734 118.957 59.9937C119.747 60.5226 121.148 60.6044 122.223 60.5183C123.298 60.4323 125.058 59.7658 125.662 59.5293C126 59.826 126.326 60.1184 126.657 60.4151C126.863 60.6216 127.082 60.8108 127.275 61.0215L127.846 61.6407C128.191 62.0449 128.549 62.4577 128.868 62.8576C129.094 63.1328 129.3 63.3994 129.532 63.6661C129.167 63.3865 128.45 62.8533 128.377 62.806C127.315 62.1739 124.686 61.3612 123.279 61.8815C123.049 61.9718 122.852 62.0923 122.7 62.2353C122.547 62.3782 122.443 62.5402 122.393 62.711C122.344 62.8817 122.351 63.0573 122.413 63.2263C122.475 63.3953 122.591 63.5539 122.754 63.6919C123.418 64.2939 124.779 64.5132 125.861 64.5519C127.043 64.5519 129.386 63.9413 129.678 63.8639C130.017 64.2939 130.342 64.7239 130.647 65.1539C131.265 65.9881 131.782 66.7493 132.221 67.4115L133.236 67.2266C132.758 66.5472 132.187 65.7559 131.51 64.883C131.165 64.453 130.78 63.9542 130.375 63.4683C131.022 63.147 131.64 62.8024 132.227 62.4362C133.39 62.7929 134.623 63.0433 135.892 63.1801C135.799 63.6747 135.706 64.152 135.606 64.6035C135.414 65.4635 135.215 66.2332 135.029 66.9084L136.124 66.7106C136.27 66.1042 136.416 65.4205 136.555 64.6852C136.648 64.1821 136.735 63.6489 136.814 63.0984C137.12 63.0984 139.656 62.9737 140.705 62.6082C141.654 62.2771 142.696 61.688 142.902 60.957C142.953 60.7863 142.948 60.6106 142.888 60.4413C142.827 60.272 142.711 60.1129 142.549 59.9744C142.387 59.836 142.181 59.7213 141.946 59.6379C141.71 59.5546 141.45 59.5044 141.183 59.4906C139.569 59.4304 137.777 60.9226 137.259 61.7912C137.226 61.8428 136.994 62.4276 136.854 62.7974C136.854 62.5695 136.921 62.3674 136.947 62.1223C137 61.6622 137.04 61.2064 137.087 60.7119V59.9894C137.087 59.7486 137.087 59.4906 137.087 59.2412C137.087 58.6564 136.98 58.0673 136.887 57.4738C137.505 57.5082 139.709 57.6028 140.731 57.3706C141.753 57.1384 142.942 56.6568 143.287 55.9516C143.378 55.789 143.415 55.6159 143.396 55.4435C143.377 55.2711 143.303 55.1031 143.178 54.9504C143.053 54.7977 142.88 54.6637 142.67 54.5569C142.46 54.4501 142.218 54.373 141.959 54.3304C140.373 54.1154 138.255 55.4141 137.538 56.2225C137.498 56.2741 137.08 56.8933 136.874 57.2373C136.808 56.8847 136.748 56.5278 136.668 56.1709C136.436 55.1346 136.151 54.0896 135.872 53.049C135.785 52.7308 135.706 52.4126 135.626 52.0944C135.845 52.0944 138.461 52.2535 139.609 51.9954C140.625 51.7632 141.82 51.2816 142.172 50.5764C142.262 50.4138 142.299 50.2408 142.281 50.0683C142.262 49.8959 142.188 49.7279 142.062 49.5752C141.937 49.4225 141.764 49.2885 141.555 49.1817C141.345 49.0749 141.103 48.9978 140.844 48.9552C139.264 48.7402 137.146 50.0389 136.429 50.8473C136.376 50.9118 135.766 51.8019 135.646 52.0342C135.467 51.3332 135.301 50.6323 135.181 49.94C135.007 49.0011 134.928 48.056 134.942 47.1105C135.049 47.1105 137.777 47.2825 138.925 47.0116C139.941 46.7794 141.136 46.302 141.488 45.5968C141.578 45.4328 141.614 45.2583 141.593 45.0847C141.572 44.9111 141.495 44.7423 141.367 44.5893C141.238 44.4363 141.061 44.3026 140.848 44.1968C140.634 44.0911 140.389 44.0157 140.127 43.9757C138.547 43.7607 136.423 45.055 135.712 45.8677C135.653 45.9322 135.049 46.8955 134.922 47.0718C134.922 47.0202 134.922 46.96 134.922 46.9084C134.984 45.9609 135.17 45.0186 135.48 44.0918C135.646 43.5801 135.845 43.0984 136.058 42.6297C136.562 42.6942 138.866 42.9694 139.961 42.8017C141.056 42.634 142.278 42.2556 142.743 41.5805C142.862 41.4236 142.93 41.2521 142.94 41.0771C142.95 40.9022 142.904 40.7278 142.803 40.5654C142.702 40.4031 142.549 40.2563 142.355 40.1348C142.16 40.0133 141.928 39.9198 141.674 39.8604C140.134 39.5336 137.81 40.6732 136.96 41.43C136.914 41.4687 136.516 41.9202 136.23 42.2556C136.33 42.0449 136.429 41.8256 136.529 41.6235C136.914 40.871 137.332 40.2001 137.717 39.6024C137.936 39.267 138.142 38.966 138.348 38.6822C138.892 38.579 141.076 38.1447 141.913 37.6759C142.749 37.2072 143.586 36.4977 143.513 35.7581C143.506 35.5844 143.442 35.4136 143.327 35.2567C143.211 35.0999 143.046 34.9606 142.842 34.8479C142.638 34.7351 142.399 34.6515 142.142 34.6023C141.885 34.5532 141.614 34.5397 141.348 34.5626C139.749 34.7346 138.494 36.4375 138.282 37.362C138.282 37.4437 138.189 38.7123 138.222 38.708H138.255C138.049 38.9789 137.837 39.267 137.591 39.568C137.193 40.1571 136.748 40.828 136.336 41.5805C135.883 42.385 135.503 43.2063 135.201 44.0402C134.851 44.9717 134.629 45.9214 134.537 46.8783V46.9127C134.418 46.616 134.046 45.7946 134.006 45.7301C133.449 44.8701 131.59 43.4167 129.977 43.507C129.709 43.5261 129.451 43.5818 129.22 43.6702C128.988 43.7587 128.787 43.8779 128.632 44.0201C128.476 44.1623 128.369 44.3242 128.317 44.4951C128.265 44.6661 128.27 44.8422 128.33 45.012C128.543 45.7387 129.658 46.3021 130.601 46.616C131.696 46.9643 134.332 47.046 134.537 47.046C134.485 48.023 134.532 49.0013 134.677 49.9744C134.763 50.542 134.869 51.1096 134.989 51.6944C134.876 51.4407 134.77 51.2128 134.75 51.1827C134.192 50.3227 132.327 48.8692 130.72 48.9595C130.453 48.9789 130.196 49.0345 129.964 49.1226C129.733 49.2107 129.533 49.3294 129.377 49.471C129.221 49.6126 129.113 49.7738 129.059 49.9443C129.006 50.1147 129.009 50.2906 129.067 50.4603C129.28 51.187 130.395 51.7503 131.344 52.0686C132.294 52.3868 134.571 52.4599 135.161 52.4771C135.215 52.6921 135.261 52.9071 135.307 53.1307C135.553 54.1756 135.805 55.2206 136.004 56.2483C136.071 56.6095 136.117 56.9707 136.17 57.3276C136.071 57.0997 135.978 56.8976 135.958 56.8976C135.4 56.0376 133.542 54.5798 131.928 54.6701C131.662 54.69 131.404 54.746 131.173 54.8347C130.942 54.9233 130.742 55.0425 130.586 55.1845C130.431 55.3265 130.324 55.4881 130.271 55.6588C130.219 55.8295 130.223 56.0055 130.282 56.1752C130.495 56.9019 131.61 57.4652 132.552 57.7792C133.495 58.0931 135.56 58.1662 136.27 58.1834C136.303 58.5532 136.336 58.923 136.343 59.2799C136.343 59.525 136.343 59.7615 136.343 60.0066C136.343 60.2517 136.31 60.4883 136.29 60.7291C136.237 61.1849 136.184 61.6579 136.111 62.1051C136.064 62.419 136.011 62.7114 135.958 63.0124C135.892 62.6512 135.746 61.946 135.726 61.8858C135.372 61.0959 134.711 60.3779 133.807 59.8002C133.772 59.7119 133.725 59.6256 133.668 59.5422C133.565 59.3813 133.411 59.2363 133.215 59.1166C133.02 58.997 132.788 58.9053 132.534 58.8477C132.28 58.7901 132.011 58.7677 131.743 58.7822C131.475 58.7967 131.215 58.8476 130.979 58.9316C129.585 59.4605 129.359 61.3397 129.651 62.2556C129.651 62.3072 129.97 62.8791 130.169 63.236C130.003 63.0382 129.844 62.8447 129.665 62.6383C129.326 62.2384 128.968 61.8428 128.583 61.4128L127.985 60.8022C127.793 60.5958 127.554 60.3936 127.321 60.1829C126.797 59.7099 126.233 59.2455 125.648 58.7854C126.193 58.5919 128.111 57.8824 128.762 57.3233C129.412 56.7643 130.003 55.9387 129.691 55.2292C129.626 55.0611 129.506 54.9038 129.341 54.7675C129.176 54.6312 128.968 54.5189 128.732 54.4378C128.495 54.3567 128.235 54.3087 127.968 54.2969C127.701 54.2851 127.433 54.3097 127.182 54.3691C125.675 54.7561 125.011 56.5923 125.104 57.5254C125.104 57.5856 125.297 58.2479 125.409 58.6134C125.051 58.3382 124.699 58.063 124.327 57.7921C123.252 57.0137 122.123 56.2483 121.008 55.4786L119.992 54.7691C120.185 54.7002 122.495 53.909 123.225 53.264C123.889 52.705 124.467 51.8793 124.155 51.1698C124.089 51.0012 123.97 50.8435 123.804 50.7068C123.638 50.5701 123.43 50.4575 123.193 50.3764C122.956 50.2953 122.695 50.2474 122.427 50.2359C122.159 50.2245 121.891 50.2496 121.639 50.3098C120.138 50.6925 119.475 52.533 119.568 53.4661C119.568 53.5349 119.84 54.4938 119.926 54.7346C119.183 54.2143 118.446 53.6897 117.749 53.1522C116.808 52.4304 115.939 51.6706 115.146 50.8774C115.239 50.8473 117.656 50.0174 118.399 49.3681C119.063 48.809 119.641 47.9834 119.329 47.2739C119.263 47.1058 119.144 46.9486 118.979 46.8122C118.813 46.6759 118.606 46.5636 118.369 46.4825C118.133 46.4015 117.872 46.3535 117.605 46.3416C117.338 46.3298 117.071 46.3544 116.819 46.4139C115.319 46.7966 114.648 48.637 114.748 49.5702C114.748 49.6433 115.04 50.671 115.113 50.8602L114.967 50.7226C114.208 49.9128 113.562 49.0608 113.035 48.1769C112.737 47.691 112.491 47.218 112.272 46.7493C112.743 46.6246 114.927 46.0311 115.677 45.5022C116.428 44.9733 117.145 44.2122 116.952 43.4855C116.917 43.313 116.826 43.1473 116.685 42.9991C116.545 42.8509 116.357 42.7235 116.136 42.6254C115.914 42.5272 115.663 42.4604 115.398 42.4293C115.134 42.3981 114.863 42.4034 114.602 42.4448C113.042 42.72 112.073 44.5003 112.006 45.4549C112.006 45.5065 112.059 46.0268 112.106 46.4053C112.006 46.1945 111.907 45.9752 111.82 45.7731C111.495 45.0077 111.276 44.2982 111.084 43.6661C110.977 43.3048 110.898 42.978 110.825 42.6727C111.19 42.3889 112.644 41.2451 112.949 40.5571C113.254 39.869 113.334 38.9746 112.65 38.407C112.497 38.2641 112.298 38.1438 112.068 38.054C111.837 37.9642 111.58 37.9069 111.313 37.8858C111.047 37.8647 110.776 37.8803 110.519 37.9316C110.262 37.9828 110.025 38.0686 109.822 38.1834C108.634 38.8929 109.039 40.7635 109.643 41.6235C109.696 41.6966 110.725 42.7802 110.738 42.7673C110.798 43.064 110.865 43.378 110.957 43.722C111.123 44.3584 111.323 45.0765 111.621 45.8462C111.928 46.6798 112.309 47.5011 112.763 48.3059C113.266 49.209 113.892 50.0811 114.635 50.9118C114.636 50.9218 114.636 50.9319 114.635 50.9419C114.283 50.7355 113.307 50.1808 113.188 50.1464C111.986 49.6261 109.205 49.08 107.93 49.7164C107.724 49.8282 107.557 49.967 107.439 50.1236C107.321 50.2803 107.256 50.4512 107.247 50.6253C107.238 50.7994 107.286 50.9727 107.388 51.134C107.49 51.2953 107.643 51.4408 107.837 51.5611C108.707 51.961 110.101 52.0428 111.177 51.9567Z" fill="#263238"/>
<path d="M135.878 42.4448C135.878 42.4448 135.878 41.1548 135.878 41.0945C135.692 40.17 134.491 38.45 132.898 38.2607C132.632 38.2347 132.361 38.245 132.102 38.2911C131.843 38.3371 131.602 38.4179 131.394 38.5281C131.186 38.6384 131.017 38.7757 130.896 38.9311C130.775 39.0865 130.706 39.2566 130.694 39.4304C130.601 40.1657 131.431 40.901 132.234 41.3655C133.163 41.9116 135.878 42.4448 135.878 42.4448Z" fill="#263238"/>
<path d="M23.5948 169.162C24.7765 168.912 26.8145 167.682 26.8145 167.682C26.8145 167.682 25.1549 167.059 25.042 167.029C23.7143 166.672 20.8929 166.483 19.8573 167.261C19.6921 167.394 19.5717 167.548 19.5038 167.713C19.436 167.878 19.4223 168.05 19.4636 168.218C19.5049 168.387 19.6002 168.548 19.7435 168.691C19.8868 168.834 20.0748 168.957 20.2955 169.05C21.2448 169.463 22.5725 169.372 23.5948 169.162Z" fill="#263238"/>
<path d="M29.6756 172.653C30.6714 172.223 32.0522 170.809 32.1584 170.693C33.4078 171.207 34.7098 171.665 36.0552 172.064C36.8386 172.301 37.6352 172.52 38.4385 172.739L37.6485 172.615C36.2478 172.494 33.4264 172.8 32.7426 173.728C32.6373 173.885 32.5838 174.054 32.5857 174.225C32.5876 174.396 32.6449 174.565 32.7537 174.72C32.8626 174.876 33.0207 175.015 33.2177 175.129C33.4148 175.242 33.6464 175.328 33.8977 175.38C34.9532 175.621 36.2411 175.298 37.124 174.924C38.007 174.55 39.2351 173.346 39.5471 173.028L40.4765 173.268C41.9635 173.655 43.4572 174.034 44.8977 174.434C45.4089 174.576 45.9001 174.726 46.398 174.864L45.7342 174.756C44.3334 174.636 41.5121 174.941 40.8283 175.87C40.723 176.027 40.6695 176.196 40.6714 176.367C40.6733 176.537 40.7306 176.706 40.8394 176.862C40.9483 177.017 41.1064 177.157 41.3034 177.27C41.5005 177.384 41.7321 177.469 41.9834 177.521C43.0389 177.762 44.3268 177.439 45.2097 177.065C46.0926 176.691 47.2013 175.603 47.573 175.225C48.0709 175.388 48.5754 175.552 49.0468 175.724C49.3654 175.848 49.7106 175.952 49.9961 176.085L50.9122 176.472C51.4897 176.73 52.0806 176.992 52.6249 177.255C53.01 177.431 53.3684 177.607 53.7336 177.783C53.229 177.642 52.2333 177.353 52.147 177.353C50.7861 177.1 47.9249 177.121 47.0353 177.973C46.8913 178.118 46.7964 178.281 46.757 178.452C46.7176 178.623 46.7345 178.797 46.8067 178.963C46.8788 179.129 47.0045 179.284 47.1755 179.416C47.3465 179.549 47.5589 179.656 47.7987 179.731C48.7812 180.075 50.1289 179.882 51.118 179.598C52.1801 179.28 53.8132 178.067 54.019 177.917C54.6165 178.209 55.2007 178.497 55.7384 178.777C56.8404 179.34 57.803 179.86 58.6328 180.321L59.4028 179.891C58.5332 179.426 57.4909 178.893 56.3159 178.312C55.7052 178.011 55.048 177.702 54.3642 177.384C54.7262 176.922 55.0411 176.445 55.3069 175.956C56.567 175.945 57.8185 175.819 59.0244 175.582C59.2767 176.042 59.5157 176.489 59.7281 176.915C60.1397 177.723 60.4849 178.459 60.7704 179.104L61.6002 178.626C61.3214 178.05 60.9961 177.409 60.6177 176.721C60.3654 176.253 60.0866 175.758 59.7879 175.251C60.0468 175.152 62.2043 174.339 62.8814 173.724C63.5585 173.109 64.0431 172.348 63.7112 171.656C63.642 171.491 63.5199 171.338 63.3529 171.206C63.1859 171.074 62.9778 170.966 62.7423 170.89C62.5067 170.814 62.2489 170.77 61.9857 170.763C61.7226 170.756 61.46 170.784 61.2151 170.847C59.7547 171.247 59.1705 173.062 59.3033 173.978C59.3033 174.029 59.4958 174.61 59.6219 174.975L59.2501 174.356C58.9912 173.926 58.7191 173.522 58.427 173.066C58.2743 172.851 58.115 172.636 57.9623 172.421C57.8096 172.206 57.6171 171.991 57.4445 171.768C57.0262 171.264 56.5616 170.766 56.1168 170.275C56.681 170.129 58.6859 169.592 59.436 169.097C60.1862 168.603 60.9031 167.85 60.7637 167.132C60.733 166.962 60.6476 166.799 60.5128 166.652C60.3781 166.505 60.1971 166.378 59.9817 166.28C59.7663 166.181 59.5213 166.113 59.2625 166.08C59.0038 166.047 58.7372 166.049 58.4801 166.087C56.9466 166.341 55.9508 168.078 55.8645 168.994C55.8645 169.054 55.911 169.716 55.9508 170.078C55.6587 169.781 55.3666 169.484 55.0546 169.192C54.1518 168.332 53.2025 167.51 52.2598 166.672C51.9677 166.414 51.6889 166.156 51.4034 165.898C51.6026 165.851 54.0057 165.244 54.8355 164.694C55.6654 164.143 56.3093 163.447 56.1632 162.729C56.1326 162.559 56.0471 162.395 55.9124 162.249C55.7776 162.102 55.5967 161.975 55.3812 161.876C55.1658 161.778 54.9208 161.71 54.6621 161.676C54.4033 161.643 54.1367 161.646 53.8796 161.684C52.3461 161.937 51.3437 163.675 51.2242 164.591C51.2242 164.659 51.2972 165.61 51.3371 165.855C50.6732 165.287 50.089 164.715 49.5181 164.135C48.7347 163.359 48.0317 162.55 47.4137 161.714C47.5066 161.688 50.0226 161.065 50.8724 160.501C51.6092 160.011 52.3461 159.254 52.2001 158.536C52.1747 158.357 52.0879 158.183 51.9461 158.028C51.8043 157.873 51.6109 157.741 51.3802 157.64C51.1494 157.54 50.887 157.474 50.612 157.447C50.337 157.421 50.0563 157.434 49.7903 157.487C48.2502 157.74 47.2544 159.478 47.1681 160.394C47.1681 160.467 47.2477 161.49 47.2809 161.684C47.2809 161.636 47.2013 161.589 47.1681 161.538C46.5817 160.689 46.1151 159.809 45.774 158.906C45.5748 158.407 45.4222 157.925 45.296 157.457C45.7806 157.371 47.9979 156.966 48.8543 156.511C49.7106 156.055 50.5272 155.375 50.4807 154.649C50.4787 154.478 50.4213 154.31 50.3122 154.154C50.2032 153.999 50.0449 153.86 49.8477 153.747C49.6505 153.634 49.4188 153.549 49.1676 153.498C48.9164 153.446 48.6513 153.43 48.3896 153.449C46.8229 153.591 45.535 155.251 45.296 156.154C45.296 156.201 45.2296 156.713 45.2031 157.083C45.1566 156.872 45.0902 156.653 45.0504 156.446C44.8778 155.676 44.7981 154.963 44.7384 154.335C44.7384 153.974 44.6853 153.651 44.672 153.346C45.0836 153.101 46.7167 152.103 47.1415 151.458C47.5664 150.813 47.8054 149.949 47.261 149.308C47.1371 149.158 46.9657 149.026 46.7579 148.921C46.5501 148.817 46.3106 148.742 46.0551 148.701C45.7995 148.66 45.5336 148.655 45.2747 148.686C45.0158 148.716 44.7697 148.782 44.5525 148.878C43.2646 149.476 43.2978 151.329 43.7293 152.202C43.7692 152.275 44.5592 153.415 44.5791 153.402C44.5791 153.694 44.5791 154.008 44.5791 154.352C44.6189 154.984 44.6786 155.698 44.8247 156.472C44.9709 157.308 45.1926 158.138 45.4885 158.957C45.8103 159.876 46.2545 160.776 46.8162 161.645C46.8175 161.655 46.8175 161.665 46.8162 161.675C46.5109 161.447 45.6346 160.815 45.5549 160.781C44.4861 160.183 41.8706 159.426 40.5163 159.959C40.2953 160.052 40.1068 160.173 39.963 160.316C39.8191 160.459 39.7231 160.619 39.6812 160.788C39.6392 160.956 39.6523 161.128 39.7196 161.293C39.7868 161.457 39.9067 161.611 40.0715 161.744C40.7354 162.324 42.0631 162.518 43.1518 162.518C44.3467 162.518 46.7034 161.83 46.8893 161.774C47.4949 162.648 48.1913 163.494 48.9738 164.307C49.4252 164.784 49.9031 165.253 50.3878 165.722C50.1156 165.532 49.8766 165.36 49.8368 165.339C48.768 164.737 46.1524 163.984 44.7981 164.513C44.5753 164.605 44.3851 164.727 44.24 164.87C44.0948 165.013 43.9981 165.174 43.9561 165.343C43.9141 165.512 43.9277 165.685 43.9962 165.85C44.0647 166.015 44.1864 166.169 44.3534 166.302C45.0172 166.883 46.3449 167.072 47.427 167.076C48.5091 167.08 50.5338 166.513 51.0649 166.358L51.6358 166.896C52.5519 167.756 53.468 168.594 54.331 169.445C54.6364 169.742 54.9218 170.048 55.2007 170.349C54.9617 170.177 54.7559 170.035 54.7227 170.017C53.6539 169.415 51.0383 168.659 49.6841 169.192C49.4614 169.283 49.2713 169.404 49.1262 169.547C48.9812 169.69 48.8844 169.851 48.8424 170.019C48.8003 170.188 48.814 170.36 48.8824 170.525C48.9508 170.69 49.0725 170.844 49.2393 170.976C49.9031 171.557 51.2308 171.75 52.3196 171.75C53.4083 171.75 55.2206 171.243 55.8579 171.062C56.1301 171.376 56.4089 171.69 56.6545 172.004C56.8205 172.219 56.9997 172.434 57.1391 172.645C57.2785 172.856 57.4378 173.075 57.5839 173.294C57.8361 173.724 58.1083 174.154 58.3407 174.558C58.5133 174.846 58.6593 175.122 58.812 175.397C58.5199 175.1 57.9158 174.537 57.8561 174.472C57.015 173.878 55.9519 173.434 54.7692 173.182C54.6814 173.112 54.5811 173.048 54.4704 172.993C54.2761 172.888 54.0508 172.809 53.8081 172.762C53.5655 172.716 53.3106 172.701 53.0591 172.72C52.8075 172.739 52.5646 172.791 52.345 172.872C52.1254 172.954 51.9338 173.064 51.7818 173.195C50.9056 174.055 51.9677 175.775 52.8506 176.489C52.9037 176.528 53.5543 176.949 53.9659 177.207L53.1295 176.82C52.5585 176.562 51.9744 176.317 51.3503 176.046L50.4209 175.676C50.1089 175.547 49.7571 175.44 49.4252 175.315C48.6485 175.044 47.8452 174.795 47.022 174.558C47.3672 174.232 48.5821 173.071 48.7812 172.408C48.9804 171.746 48.9472 170.843 48.197 170.306C48.027 170.175 47.8164 170.069 47.579 169.995C47.3415 169.92 47.0825 169.879 46.8189 169.874C46.5553 169.868 46.2929 169.899 46.0488 169.964C45.8047 170.029 45.5844 170.126 45.4022 170.25C44.3401 171.011 44.984 172.83 45.6943 173.608C45.7342 173.66 46.3582 174.193 46.6901 174.468C46.1922 174.326 45.6943 174.184 45.1898 174.038C43.7161 173.655 42.2091 173.294 40.7088 172.933L39.3347 172.597C39.4608 172.481 40.9478 171.118 41.1735 170.361C41.3727 169.686 41.3395 168.796 40.5893 168.254C40.4187 168.124 40.2079 168.019 39.9705 167.945C39.7331 167.871 39.4744 167.83 39.2111 167.825C38.9478 167.819 38.6856 167.85 38.4417 167.914C38.1977 167.979 37.9772 168.075 37.7945 168.198C36.7324 168.96 37.3763 170.779 38.0866 171.561C38.1397 171.621 39.016 172.387 39.255 172.576C38.2459 172.327 37.2634 172.073 36.2743 171.798C34.9651 171.426 33.6926 171.002 32.4638 170.529C32.5169 170.473 34.0836 169.058 34.3093 168.28C34.5085 167.609 34.4753 166.715 33.7251 166.177C33.5556 166.046 33.3453 165.94 33.1081 165.865C32.8709 165.791 32.6121 165.749 32.3485 165.743C32.0848 165.738 31.8223 165.768 31.5779 165.832C31.3336 165.897 31.1129 165.994 30.9303 166.117C29.8682 166.883 30.5187 168.697 31.2224 169.48C31.2822 169.544 32.2248 170.366 32.4107 170.508L32.1916 170.43C30.98 169.931 29.8402 169.363 28.7861 168.732C28.1953 168.388 27.6575 168.039 27.153 167.691C27.4849 167.446 28.9852 166.319 29.3105 165.636C29.6358 164.952 29.742 164.088 29.0848 163.485C28.9385 163.344 28.7477 163.224 28.5249 163.133C28.302 163.042 28.0521 162.983 27.7915 162.959C27.5309 162.935 27.2655 162.947 27.0124 162.994C26.7594 163.041 26.5246 163.122 26.3232 163.232C25.1349 163.911 25.4735 165.752 26.0377 166.594C26.0377 166.637 26.4626 167.08 26.7613 167.403C26.5356 167.24 26.2967 167.08 26.0975 166.926C25.3009 166.345 24.6304 165.777 24.0396 165.274C23.7076 164.991 23.4155 164.724 23.15 164.475C23.2828 164.126 23.8139 162.707 23.5948 162.015C23.3757 161.323 22.8778 160.518 21.8754 160.192C21.6439 160.107 21.3871 160.055 21.1222 160.039C20.8573 160.024 20.5903 160.045 20.3391 160.102C20.0878 160.158 19.8581 160.249 19.6651 160.367C19.4721 160.486 19.3204 160.63 19.22 160.789C18.6491 161.748 20.2623 163.279 21.3642 163.855C21.4572 163.907 23.0903 164.573 23.0969 164.556V164.535C23.3492 164.776 23.6213 165.038 23.9267 165.317C24.5043 165.829 25.1615 166.401 25.9183 166.999C26.7472 167.645 27.6338 168.26 28.5737 168.839C29.6199 169.496 30.7552 170.09 31.9659 170.615H32.0124C31.5676 170.533 30.2997 170.331 30.2001 170.323C28.7994 170.202 25.978 170.508 25.2942 171.436C25.1889 171.593 25.1354 171.762 25.1373 171.933C25.1392 172.104 25.1965 172.273 25.3054 172.428C25.4142 172.584 25.5723 172.723 25.7693 172.837C25.9664 172.95 26.1981 173.036 26.4493 173.088C27.5049 173.35 28.7927 173.028 29.6756 172.653Z" fill="#263238"/>
<path d="M45.0438 157.332C45.077 157.332 44.194 156.218 44.1277 156.149C43.3377 155.388 41.1271 154.214 39.6002 154.494C39.3485 154.545 39.1163 154.629 38.9187 154.742C38.7211 154.856 38.5626 154.994 38.4535 155.15C38.3445 155.305 38.2874 155.474 38.2859 155.645C38.2845 155.815 38.3387 155.985 38.4451 156.141C38.8567 156.816 40.0782 157.233 41.1005 157.431C42.2954 157.629 45.0438 157.332 45.0438 157.332Z" fill="#263238"/>
<path d="M137.412 50.1077L131.47 53.4919" stroke="#263238" stroke-linecap="round" stroke-linejoin="round"/>
<path d="M190.287 19.998L155.721 39.6798" stroke="#263238" stroke-linecap="round" stroke-linejoin="round"/>
<path d="M185.116 19.1595L151.505 27.1148" stroke="#263238" stroke-linecap="round" stroke-linejoin="round"/>
<path d="M154.333 15.9043L132.758 17.0653" stroke="#263238" stroke-linecap="round" stroke-linejoin="round"/>
<path d="M179.294 14.5541L156.743 15.771" stroke="#263238" stroke-linecap="round" stroke-linejoin="round"/>
<path d="M169.735 5.87637L147.257 1" stroke="#263238" stroke-linecap="round" stroke-linejoin="round"/>
<path d="M177.356 7.43732L172.861 6.51709" stroke="#263238" stroke-linecap="round" stroke-linejoin="round"/>
<path d="M267.719 50.1077L273.66 53.4919" stroke="#263238" stroke-linecap="round" stroke-linejoin="round"/>
<path d="M214.843 19.998L264.061 48.0264" stroke="#263238" stroke-linecap="round" stroke-linejoin="round"/>
<path d="M220.015 19.1595L253.625 27.1148" stroke="#263238" stroke-linecap="round" stroke-linejoin="round"/>
<path d="M250.791 15.9043L272.366 17.0653" stroke="#263238" stroke-linecap="round" stroke-linejoin="round"/>
<path d="M225.83 14.5541L248.388 15.771" stroke="#263238" stroke-linecap="round" stroke-linejoin="round"/>
<path d="M235.396 5.87634L252.57 2.35022" stroke="#263238" stroke-linecap="round" stroke-linejoin="round"/>
<path d="M227.768 7.43732L232.269 6.51709" stroke="#263238" stroke-linecap="round" stroke-linejoin="round"/>
<path d="M203.213 16.373H199.654V26.186H203.213V16.373Z" fill="#92E3A9" stroke="#263238" stroke-linecap="round" stroke-linejoin="round"/>
<path d="M206.691 28.2888H196.176L197.417 24.4832H205.45L206.691 28.2888Z" fill="#92E3A9" stroke="#263238" stroke-linecap="round" stroke-linejoin="round"/>
<path d="M213.024 29.8884H189.843L192.312 26.3838H210.555L213.024 29.8884Z" fill="#92E3A9" stroke="#263238" stroke-linecap="round" stroke-linejoin="round"/>
<path d="M189.683 5.9839C188.025 5.9634 186.395 6.26316 185.001 6.84498C183.607 7.4268 182.512 8.26432 181.855 9.25081C181.199 10.2373 181.01 11.3281 181.314 12.3842C181.618 13.4402 182.401 14.4137 183.562 15.1806C184.724 15.9475 186.211 16.4731 187.835 16.6903C189.459 16.9076 191.147 16.8066 192.682 16.4004C194.217 15.9942 195.531 15.301 196.456 14.4093C197.381 13.5176 197.875 12.4678 197.875 11.3935C197.886 10.6899 197.682 9.99177 197.276 9.3391C196.87 8.68644 196.27 8.09196 195.509 7.58963C194.748 7.0873 193.842 6.68694 192.843 6.41143C191.843 6.13591 190.77 5.99064 189.683 5.9839ZM189.683 15.4442C188.447 15.4587 187.232 15.2345 186.193 14.8C185.154 14.3655 184.338 13.7405 183.85 13.0046C183.361 12.2687 183.222 11.4553 183.45 10.668C183.678 9.88066 184.263 9.15514 185.13 8.58387C185.996 8.0126 187.106 7.62146 188.318 7.46029C189.529 7.29912 190.787 7.37523 191.931 7.67892C193.075 7.9826 194.054 8.50011 194.743 9.16548C195.431 9.83085 195.798 10.614 195.797 11.415C195.803 12.4708 195.163 13.485 194.017 14.236C192.871 14.987 191.313 15.4136 189.683 15.4227V15.4442Z" fill="#92E3A9" stroke="#263238" stroke-linecap="round" stroke-linejoin="round"/>
<path d="M214.425 5.9839C212.767 5.9634 211.137 6.26316 209.743 6.84498C208.349 7.4268 207.253 8.26432 206.597 9.25081C205.94 10.2373 205.752 11.3281 206.056 12.3842C206.36 13.4402 207.143 14.4137 208.304 15.1806C209.465 15.9475 210.953 16.4731 212.577 16.6903C214.201 16.9076 215.888 16.8066 217.424 16.4004C218.959 15.9942 220.273 15.301 221.198 14.4093C222.123 13.5176 222.617 12.4678 222.617 11.3935C222.627 10.6899 222.424 9.99177 222.018 9.3391C221.612 8.68644 221.011 8.09196 220.251 7.58963C219.49 7.0873 218.584 6.68694 217.584 6.41143C216.585 6.13591 215.511 5.99064 214.425 5.9839ZM214.425 15.4442C213.188 15.4596 211.973 15.2361 210.933 14.8021C209.893 14.3682 209.076 13.7435 208.587 13.0077C208.097 12.2719 207.957 11.4583 208.184 10.6707C208.412 9.88313 208.996 9.15721 209.862 8.58551C210.729 8.01381 211.839 7.62223 213.05 7.46071C214.262 7.29918 215.52 7.37502 216.665 7.67857C217.809 7.98211 218.788 8.4996 219.477 9.16506C220.166 9.83051 220.533 10.6138 220.532 11.415C220.538 12.47 219.899 13.4836 218.754 14.2345C217.61 14.9853 216.054 15.4125 214.425 15.4227V15.4442Z" fill="#92E3A9" stroke="#263238" stroke-linecap="round" stroke-linejoin="round"/>
<path d="M201.433 19.0735C200.074 19.0741 198.727 18.9011 197.471 18.5644C196.214 18.2278 195.073 17.7341 194.111 17.1115C193.149 16.4889 192.386 15.7497 191.866 14.936C191.345 14.1224 191.077 13.2503 191.077 12.3696V5.45923H211.77V12.3696C211.77 14.1461 210.681 15.8499 208.743 17.1069C206.805 18.3639 204.176 19.0712 201.433 19.0735V19.0735Z" fill="#92E3A9" stroke="#263238" stroke-linecap="round" stroke-linejoin="round"/>
<path d="M201.148 7.66528L202.482 10.3228H206.797L203.306 11.9654L204.64 14.6229L201.148 12.9803L197.656 14.6229L198.991 11.9654L195.499 10.3228H199.814L201.148 7.66528Z" fill="#263238"/>
<path d="M235.642 29.9229H167.663V70.0691H235.642V29.9229Z" fill="#263238" stroke="#263238" stroke-linejoin="round"/>
<path d="M212.845 29.9229H167.663V70.0691H212.845V29.9229Z" fill="white" stroke="#263238" stroke-linejoin="round"/>
<path d="M183.31 49.8669H115.332V90.0131H183.31V49.8669Z" fill="#263238" stroke="#263238" stroke-linejoin="round"/>
<path d="M160.514 49.8669H115.332V90.0131H160.514V49.8669Z" fill="white" stroke="#263238" stroke-linejoin="round"/>
<path d="M146.048 61.2409V58.0329H142.948C142.712 57.4729 142.359 56.9362 141.899 56.4376L143.818 55.1905L140.313 52.9201L138.401 54.1585C137.543 53.8219 136.612 53.5711 135.639 53.4146V51.931H130.68V53.4146C129.61 53.5926 128.592 53.8831 127.666 54.2746L126.299 53.3888L122.814 55.6464L124.294 56.6053C123.741 57.2482 123.361 57.9478 123.172 58.6737H121.287V61.8859H123.544C123.887 62.5497 124.391 63.1738 125.038 63.7349L123.511 64.724L126.996 66.9816L128.888 65.756C129.772 66.0227 130.711 66.2052 131.676 66.2978V67.9706H136.628V65.971C137.452 65.7777 138.233 65.516 138.952 65.1927L141.016 66.53L144.522 64.2596L142.218 62.7674C142.602 62.2796 142.89 61.7624 143.074 61.228L146.048 61.2409ZM133.163 63.8209C131.937 63.8218 130.737 63.587 129.717 63.1462C128.696 62.7054 127.9 62.0784 127.43 61.3446C126.96 60.6108 126.836 59.8031 127.074 59.0237C127.313 58.2443 127.903 57.5283 128.77 56.9661C129.637 56.404 130.741 56.0211 131.944 55.8658C133.147 55.7104 134.394 55.7897 135.528 56.0936C136.661 56.3974 137.63 56.9122 138.311 57.5728C138.993 58.2334 139.357 59.0101 139.357 59.8046C139.353 60.8676 138.699 61.8863 137.538 62.6375C136.378 63.3887 134.804 63.8112 133.163 63.8123V63.8209Z" fill="#92E3A9"/>
<path d="M150.583 73.9693V71.6085H148.306C148.127 71.197 147.866 70.8023 147.529 70.4346L148.943 69.5187L146.367 67.8416L144.96 68.7532C144.329 68.5058 143.644 68.3217 142.928 68.2071V67.1149H139.284V68.2071C138.497 68.3343 137.747 68.5449 137.067 68.8306L136.091 68.1856L133.515 69.8541L134.604 70.5593C134.198 71.0332 133.918 71.5477 133.774 72.0815H132.393V74.4423H134.053C134.304 74.9302 134.673 75.389 135.148 75.8012L134.026 76.5279L136.602 78.1964L137.996 77.2976C138.645 77.4912 139.334 77.6244 140.041 77.6932V78.9231H143.685V77.4567C144.288 77.3094 144.859 77.1129 145.385 76.8719L146.905 77.8566L149.481 76.1882L147.788 75.0916C148.069 74.7334 148.279 74.3533 148.412 73.9607L150.583 73.9693ZM141.109 75.8571C140.209 75.8571 139.328 75.6841 138.579 75.3599C137.83 75.0358 137.247 74.5751 136.902 74.0361C136.557 73.497 136.467 72.9039 136.643 72.3317C136.819 71.7594 137.252 71.2338 137.889 70.8213C138.526 70.4087 139.338 70.1278 140.221 70.014C141.104 69.9001 142.02 69.9585 142.852 70.1818C143.684 70.4051 144.396 70.7832 144.896 71.2683C145.396 71.7534 145.663 72.3237 145.663 72.9072C145.663 73.2946 145.546 73.6782 145.317 74.0361C145.088 74.394 144.752 74.7191 144.33 74.9931C143.907 75.267 143.405 75.4843 142.852 75.6325C142.3 75.7808 141.707 75.8571 141.109 75.8571Z" fill="#92E3A9"/>
<path d="M220.898 75.771H152.919V115.917H220.898V75.771Z" fill="#263238" stroke="#263238" stroke-linejoin="round"/>
<path d="M198.101 75.771H152.919V115.917H198.101V75.771Z" fill="white" stroke="#263238" stroke-linejoin="round"/>
<path d="M187.028 82.7631L183.105 80.8882C182.363 80.5333 181.473 80.3329 180.551 80.3137C179.63 80.2945 178.721 80.4574 177.946 80.7807L170.166 83.7908C169.756 83.9539 169.454 84.2107 169.322 84.5106C169.189 84.8105 169.235 85.1317 169.45 85.4108C169.665 85.6899 170.034 85.9067 170.483 86.0184C170.933 86.13 171.431 86.1285 171.879 86.014L179.148 84.3972L187.871 90.2454L193.295 89.0198V81.8687L187.028 82.7631Z" fill="#92E3A9"/>
<path d="M178.185 85.1883L170.943 86.8051C169.615 87.1749 168.175 85.7473 168.175 84.8185C168.175 83.6187 169.94 83.2876 171.328 82.4921L172.656 81.7353C171.94 81.3135 171.046 81.0405 170.089 80.9516C169.131 80.8627 168.154 80.9619 167.285 81.2364V81.2364C165.2 81.8981 162.802 82.0151 160.587 81.5632L158.662 81.1719V89.1186L161.118 89.3164L161.35 89.1874C162.153 88.7414 163.191 88.5142 164.247 88.5535C165.303 88.5928 166.294 88.8955 167.013 89.3981L175.723 95.4656C175.92 95.6023 176.19 95.6854 176.478 95.6982C176.767 95.7109 177.052 95.6524 177.276 95.5344V95.5344C177.394 95.4715 177.492 95.3938 177.562 95.3059C177.633 95.218 177.675 95.1217 177.687 95.0229C177.699 94.9241 177.68 94.8248 177.631 94.7309C177.582 94.637 177.504 94.5505 177.402 94.4766L175.225 92.8941L178.245 94.1842C178.537 94.2982 178.881 94.3406 179.217 94.3037C179.553 94.2669 179.857 94.1532 180.074 93.9834C180.291 93.8136 180.407 93.599 180.4 93.3785C180.393 93.1581 180.265 92.9465 180.038 92.7823L178.285 91.6041L180.94 92.692C181.26 92.8171 181.638 92.8642 182.007 92.8246C182.375 92.7851 182.71 92.6615 182.95 92.4763C183.19 92.2911 183.321 92.0564 183.317 91.8144C183.314 91.5725 183.177 91.3393 182.932 91.1569L181.359 90.0173L184.24 91.1483C184.457 91.2335 184.709 91.2731 184.963 91.2615C185.216 91.25 185.457 91.1879 185.654 91.0838V91.0838C185.789 91.0125 185.899 90.9236 185.976 90.8227C186.054 90.7219 186.098 90.6115 186.105 90.4989C186.112 90.3862 186.081 90.274 186.016 90.1694C185.951 90.0649 185.852 89.9706 185.727 89.8926L178.185 85.1883Z" fill="#92E3A9"/>
<path d="M164.636 92.1933L165.752 91.2816C165.976 91.0852 166.074 90.84 166.024 90.5978C165.975 90.3555 165.782 90.1352 165.486 89.9834C165.191 89.8316 164.816 89.7601 164.44 89.7841C164.065 89.8081 163.719 89.9257 163.475 90.112L162.359 91.0236C162.135 91.22 162.037 91.4652 162.086 91.7075C162.136 91.9497 162.329 92.17 162.624 92.3218C162.92 92.4737 163.295 92.5451 163.67 92.5211C164.046 92.4971 164.392 92.3796 164.636 92.1933V92.1933Z" fill="#92E3A9"/>
<path d="M166.787 93.522L167.902 92.6104C168.113 92.4135 168.2 92.172 168.145 91.9351C168.091 91.6982 167.899 91.4836 167.609 91.3351C167.319 91.1866 166.952 91.1153 166.583 91.1358C166.215 91.1562 165.872 91.2668 165.625 91.4451L164.51 92.3524C164.3 92.5493 164.213 92.7908 164.267 93.0277C164.322 93.2646 164.514 93.4792 164.804 93.6277C165.094 93.7762 165.461 93.8475 165.829 93.827C166.198 93.8066 166.54 93.696 166.787 93.5177V93.522Z" fill="#92E3A9"/>
<path d="M168.918 94.8508L170.027 93.9435C170.251 93.7471 170.349 93.5019 170.3 93.2596C170.25 93.0174 170.057 92.7971 169.762 92.6453C169.466 92.4934 169.091 92.422 168.716 92.446C168.34 92.47 167.994 92.5875 167.75 92.7738L166.628 93.6855C166.389 93.8807 166.28 94.1292 166.323 94.3766C166.367 94.624 166.56 94.8502 166.86 95.0056C167.01 95.0839 167.183 95.1421 167.368 95.1767C167.554 95.2113 167.748 95.2217 167.939 95.2073C168.131 95.1929 168.316 95.154 168.484 95.0928C168.652 95.0316 168.8 94.9493 168.918 94.8508V94.8508Z" fill="#92E3A9"/>
<path d="M171.939 93.9521C171.789 93.8752 171.618 93.8183 171.435 93.7845C171.251 93.7507 171.059 93.7407 170.87 93.755C170.681 93.7694 170.497 93.8079 170.331 93.8683C170.165 93.9287 170.018 94.0097 169.901 94.1069L168.785 95.0142C168.659 95.1105 168.564 95.2223 168.506 95.3428C168.448 95.4634 168.428 95.5903 168.447 95.716C168.466 95.8417 168.524 95.9636 168.618 96.0744C168.711 96.1853 168.838 96.2829 168.991 96.3614C169.143 96.4398 169.319 96.4976 169.507 96.5312C169.695 96.5649 169.891 96.5737 170.085 96.5571C170.278 96.5405 170.464 96.4989 170.632 96.4348C170.8 96.3707 170.946 96.2853 171.062 96.1838L172.178 95.2722C172.296 95.1755 172.384 95.0645 172.436 94.9457C172.489 94.8269 172.504 94.7026 172.482 94.5799C172.46 94.4573 172.4 94.3387 172.307 94.2309C172.214 94.1231 172.089 94.0284 171.939 93.9521Z" fill="#92E3A9"/>
<path d="M161.715 101.413H93.7372V141.559H161.715V101.413Z" fill="#263238" stroke="#263238" stroke-linejoin="round"/>
<path d="M138.919 101.413H93.7372V141.559H138.919V101.413Z" fill="white" stroke="#263238" stroke-linejoin="round"/>
<path d="M105.567 121.525H100.568V126.896H105.567V121.525Z" fill="#92E3A9"/>
<path d="M111.635 119.228H106.636V126.9H111.635V119.228Z" fill="#92E3A9"/>
<path d="M117.709 117.659H112.71V126.896H117.709V117.659Z" fill="#92E3A9"/>
<path d="M123.776 115.569H118.778V126.9H123.776V115.569Z" fill="#92E3A9"/>
<path d="M120.822 112.198L116.793 113.015L117.861 113.651L115 115.672L108.282 116.498L101.219 120.011C101.079 120.08 100.987 120.182 100.963 120.295C100.94 120.408 100.986 120.522 101.093 120.613C101.2 120.703 101.358 120.762 101.533 120.776C101.707 120.791 101.883 120.76 102.022 120.69L108.873 117.293L115.711 116.433L118.87 114.206L119.939 114.842L120.822 112.198Z" fill="#92E3A9"/>
<path d="M202.907 131.888H134.929V172.034H202.907V131.888Z" fill="#263238" stroke="#263238" stroke-linejoin="round"/>
<path d="M180.111 131.888H134.929V172.034H180.111V131.888Z" fill="white" stroke="#263238" stroke-linejoin="round"/>
<path d="M164.809 146.057L160.653 144.281V143.774C161.533 143.016 162.023 142.098 162.054 141.151C162.054 138.824 160.587 138.57 158.768 138.57C156.949 138.57 155.482 139.078 155.482 141.151C155.517 142.119 156.028 143.054 156.942 143.821V144.118L152.388 146.057C152.007 146.22 151.693 146.441 151.477 146.701C151.26 146.962 151.147 147.253 151.147 147.549V148.186L158.383 150.241L166.07 148.186V147.549C166.068 147.252 165.952 146.96 165.732 146.699C165.511 146.439 165.194 146.218 164.809 146.057Z" fill="#92E3A9"/>
<path d="M169.37 143.438C169.374 142.102 168.786 140.794 167.675 139.668C166.565 138.543 164.978 137.648 163.105 137.09C161.231 136.532 159.149 136.334 157.108 136.52C155.066 136.707 153.149 137.269 151.587 138.141C150.024 139.012 148.881 140.157 148.293 141.437C147.706 142.717 147.699 144.08 148.273 145.363C148.847 146.646 149.978 147.795 151.531 148.674C153.085 149.552 154.995 150.123 157.035 150.318V155.818C156.729 155.956 156.478 156.14 156.304 156.354C156.131 156.568 156.04 156.806 156.039 157.048V166.38C156.039 166.779 156.284 167.161 156.72 167.444C157.156 167.726 157.747 167.885 158.363 167.885C158.979 167.885 159.57 167.726 160.006 167.444C160.442 167.161 160.686 166.779 160.686 166.38V157.048C160.687 156.806 160.597 156.568 160.424 156.353C160.25 156.139 159.998 155.955 159.691 155.818V150.374C162.343 150.199 164.8 149.392 166.588 148.111C168.376 146.83 169.367 145.165 169.37 143.438V143.438ZM149.839 143.438C149.838 142.315 150.351 141.216 151.314 140.281C152.277 139.346 153.646 138.618 155.248 138.187C156.85 137.756 158.614 137.643 160.315 137.862C162.017 138.081 163.58 138.621 164.807 139.416C166.034 140.21 166.87 141.222 167.209 142.324C167.548 143.426 167.375 144.569 166.711 145.607C166.048 146.645 164.924 147.532 163.481 148.157C162.039 148.781 160.343 149.114 158.609 149.114C156.285 149.112 154.057 148.514 152.414 147.45C150.77 146.386 149.844 144.943 149.839 143.438V143.438Z" fill="#92E3A9"/>
<path d="M121.533 160.854H53.5543V201H121.533V160.854Z" fill="#263238" stroke="#263238" stroke-linejoin="round"/>
<path d="M98.7359 160.854H53.5543V201H98.7359V160.854Z" fill="white" stroke="#263238" stroke-linejoin="round"/>
<path d="M91.9514 185.507C91.9509 185.21 91.8365 184.918 91.6187 184.656C91.4009 184.395 91.0864 184.173 90.7034 184.01L86.5277 182.226V181.718C87.4098 180.961 87.9021 180.043 87.9351 179.095C87.9351 176.773 86.4614 176.515 84.6159 176.515C82.7704 176.515 81.3298 177.022 81.3298 179.095C81.3594 180.064 81.8717 181.001 82.7903 181.765V182.066L78.2363 184.002C77.8533 184.165 77.5387 184.387 77.3209 184.648C77.1031 184.909 76.9888 185.201 76.9882 185.498V187.123C76.599 187.075 76.2029 187.053 75.8066 187.059C75.4653 187.056 75.1246 187.077 74.7909 187.123V185.498C74.7903 185.201 74.676 184.909 74.4582 184.648C74.2404 184.387 73.9258 184.165 73.5428 184.002L69.4004 182.226V181.718C70.2825 180.961 70.7748 180.043 70.8078 179.095C70.8078 177.311 69.9381 176.743 68.7034 176.575L70.8343 175.001H74.4523L75.4215 183.993H75.853L77.2471 174.997H82.1596L84.025 176.39L83.8989 174.997H86.302V163.249H65.9816V175.01H68.9424L68.6702 176.579C68.291 176.537 67.9066 176.517 67.5217 176.519C65.7028 176.519 64.2357 177.027 64.2357 179.099C64.2643 180.079 64.7865 181.026 65.7227 181.796V182.097L61.1687 184.032C60.7857 184.195 60.4712 184.417 60.2533 184.678C60.0355 184.939 59.9212 185.231 59.9207 185.528V188.246H72.9122C72.6704 188.701 72.558 189.18 72.5803 189.661C72.6122 190.629 73.1242 191.565 74.0407 192.331V192.628L69.4867 194.567C69.1034 194.729 68.7885 194.95 68.5706 195.211C68.3526 195.471 68.2385 195.763 68.2387 196.059V198.79H83.1687V196.059C83.1688 195.763 83.0547 195.471 82.8368 195.211C82.6189 194.95 82.3039 194.729 81.9206 194.567L77.745 192.791V192.284C78.6271 191.526 79.1194 190.609 79.1524 189.661C79.1725 189.183 79.0808 188.706 78.8802 188.246H91.978L91.9514 185.507ZM66.4197 174.726V163.546H85.8772V174.726H83.4408L83.5139 175.586L82.3588 174.726H76.8488L75.6804 182.324L74.8639 174.726H70.6352L69.2544 175.775L69.427 174.748L66.4197 174.726Z" fill="#92E3A9"/>
<path d="M73.8483 172.606H78.3093V172.167H73.8549L73.8483 172.606Z" fill="#92E3A9"/>
<path d="M74.1536 173.376H78.004C78.1994 173.244 78.3088 173.068 78.3093 172.886H73.8483C73.8488 173.068 73.9582 173.244 74.1536 173.376V173.376Z" fill="#92E3A9"/>
<path d="M75.5079 174.313H76.6364C76.7817 174.314 76.9257 174.296 77.0602 174.26C77.1946 174.225 77.3169 174.172 77.4199 174.106C77.523 174.039 77.6047 173.961 77.6605 173.874C77.7163 173.787 77.7451 173.694 77.7451 173.599H74.4258C74.424 173.787 74.5368 173.967 74.7396 174.101C74.9423 174.235 75.2185 174.311 75.5079 174.313V174.313Z" fill="#92E3A9"/>
<path d="M73.1976 169.974C73.8549 170.488 74.2142 171.135 74.2133 171.802V171.935H77.9574V171.802C77.9566 171.134 78.3184 170.487 78.9797 169.974C79.5497 169.536 79.8624 168.982 79.8626 168.409C79.8629 168.075 79.757 167.744 79.5515 167.437C79.3459 167.13 79.0452 166.854 78.6678 166.626C78.2905 166.398 77.8447 166.222 77.3582 166.11C76.8717 165.998 76.3548 165.952 75.8397 165.975C75.1455 166.004 74.4773 166.157 73.909 166.417C73.3407 166.677 72.8944 167.034 72.6196 167.448C72.3447 167.862 72.252 168.317 72.3516 168.763C72.4513 169.209 72.7395 169.628 73.1843 169.974H73.1976Z" fill="#92E3A9"/>
<path d="M80.4469 168.426C80.4469 168.488 80.4847 168.547 80.5519 168.59C80.6191 168.634 80.7103 168.659 80.8054 168.659H82.6974C82.7924 168.659 82.8836 168.634 82.9508 168.59C83.0181 168.547 83.0558 168.488 83.0558 168.426C83.0558 168.365 83.0181 168.306 82.9508 168.262C82.8836 168.219 82.7924 168.194 82.6974 168.194H80.8054C80.7103 168.194 80.6191 168.219 80.5519 168.262C80.4847 168.306 80.4469 168.365 80.4469 168.426Z" fill="#92E3A9"/>
<path d="M71.5911 168.426C71.5911 168.365 71.5534 168.306 71.4861 168.262C71.4189 168.219 71.3277 168.194 71.2326 168.194H69.3208C69.2257 168.194 69.1345 168.219 69.0673 168.262C69.0001 168.306 68.9623 168.365 68.9623 168.426C68.9623 168.488 69.0001 168.547 69.0673 168.59C69.1345 168.634 69.2257 168.659 69.3208 168.659H71.2326C71.3277 168.659 71.4189 168.634 71.4861 168.59C71.5534 168.547 71.5911 168.488 71.5911 168.426V168.426Z" fill="#92E3A9"/>
<path d="M76.019 165.554C76.1141 165.554 76.2053 165.529 76.2725 165.486C76.3397 165.442 76.3775 165.383 76.3775 165.322V164.092C76.3784 164.062 76.3699 164.031 76.3526 164.003C76.3354 163.975 76.3096 163.95 76.2768 163.928C76.2441 163.906 76.205 163.889 76.1619 163.877C76.1187 163.866 76.0724 163.86 76.0257 163.86V163.86C75.9317 163.861 75.8423 163.886 75.7765 163.929C75.7107 163.973 75.6738 164.031 75.6738 164.092V165.317C75.6737 165.378 75.7094 165.436 75.7736 165.48C75.8379 165.524 75.9257 165.551 76.019 165.554Z" fill="#92E3A9"/>
<path d="M79.4379 166.44C79.5326 166.439 79.623 166.414 79.6901 166.371L81.0178 165.511C81.0516 165.49 81.0784 165.464 81.0967 165.436C81.115 165.408 81.1244 165.378 81.1244 165.347C81.1244 165.317 81.115 165.287 81.0967 165.259C81.0784 165.231 81.0516 165.205 81.0178 165.184C80.9496 165.141 80.8578 165.116 80.7623 165.116C80.6667 165.116 80.5749 165.141 80.5067 165.184L79.179 166.044C79.1125 166.088 79.0752 166.146 79.0752 166.208C79.0752 166.269 79.1125 166.327 79.179 166.371C79.2493 166.414 79.3414 166.438 79.4379 166.44V166.44Z" fill="#92E3A9"/>
<path d="M72.3612 170.469L71.0335 171.329C70.967 171.372 70.9297 171.431 70.9297 171.492C70.9297 171.554 70.967 171.612 71.0335 171.656C71.0663 171.678 71.1055 171.695 71.1488 171.707C71.1921 171.719 71.2387 171.725 71.2857 171.725C71.3328 171.725 71.3793 171.719 71.4227 171.707C71.466 171.695 71.5052 171.678 71.538 171.656L72.8657 170.796C72.9221 170.751 72.951 170.695 72.9466 170.637C72.9423 170.58 72.905 170.525 72.8421 170.484C72.7791 170.444 72.6951 170.419 72.6062 170.417C72.5173 170.414 72.43 170.432 72.3612 170.469V170.469Z" fill="#92E3A9"/>
<path d="M72.2948 166.345C72.3287 166.367 72.369 166.385 72.4135 166.397C72.458 166.408 72.5057 166.414 72.5537 166.414C72.6243 166.414 72.6931 166.4 72.7516 166.374C72.8101 166.349 72.8557 166.313 72.8826 166.27C72.9096 166.228 72.9167 166.182 72.903 166.137C72.8894 166.092 72.8556 166.051 72.806 166.018L71.538 165.197C71.5063 165.172 71.4668 165.151 71.4221 165.137C71.3774 165.122 71.3285 165.114 71.2785 165.112C71.2286 165.111 71.1786 165.116 71.1319 165.128C71.0852 165.139 71.0428 165.157 71.0075 165.18C70.9721 165.203 70.9445 165.23 70.9265 165.261C70.9085 165.291 70.9004 165.323 70.9029 165.356C70.9054 165.388 70.9182 165.42 70.9407 165.449C70.9632 165.478 70.9948 165.503 71.0335 165.524L72.2948 166.345Z" fill="#92E3A9"/>
<path d="M79.7233 170.508C79.6551 170.464 79.5633 170.44 79.4678 170.44C79.3722 170.44 79.2804 170.464 79.2122 170.508C79.1457 170.551 79.1084 170.61 79.1084 170.671C79.1084 170.732 79.1457 170.791 79.2122 170.834L80.4735 171.652C80.5063 171.673 80.5455 171.691 80.5888 171.703C80.6322 171.714 80.6787 171.721 80.7258 171.721C80.7728 171.721 80.8194 171.714 80.8627 171.703C80.906 171.691 80.9452 171.673 80.978 171.652C81.0445 171.608 81.0818 171.549 81.0818 171.488C81.0818 171.427 81.0445 171.368 80.978 171.325L79.7233 170.508Z" fill="#92E3A9"/>
<path d="M103.057 70.3958C103.057 70.3958 105.228 72.0084 104.903 72.5717C104.681 73.1219 104.571 73.6887 104.578 74.2574C104.578 74.2574 107.392 75.2421 107.392 75.7323C107.289 76.1978 107.064 76.6485 106.729 77.0654C106.729 77.0654 107.392 79.8734 106.948 80.5743C106.503 81.2752 101.849 81.7697 101.849 81.7697L100.117 85.2099L90.1589 83.2447L91.7853 79.8046C91.7853 79.8046 89.2959 75.7323 88.8577 74.3993C88.4196 73.0662 91.5662 70.4646 95.4962 69.8325C98.0449 69.4939 100.694 69.6912 103.057 70.3958V70.3958Z" fill="white" stroke="#263238" stroke-linejoin="round"/>
<path d="M99.6984 76.7859C99.6984 76.7859 101.431 76.8547 101.219 76.2914C101.006 75.7281 100.349 75.4313 100.674 75.169C101 74.9067 103.057 74.0467 102.407 73.4834C101.756 72.9201 99.8046 72.5029 100.674 71.8708C101.544 71.2387 106.529 69.8326 106.529 69.8326C106.529 69.8326 101.431 68.2888 100.674 68.2888C99.9175 68.2888 103.708 67.5191 102.407 66.887C101.106 66.2548 92.7612 66.2548 89.4021 69.1316C86.043 72.0084 86.4745 73.6941 87.7757 76.0807C89.0768 78.4673 91.5663 81.2796 92.8674 81.4903C94.1686 81.701 98.5035 81.8386 98.7226 80.8581C98.9416 79.8777 99.6984 76.7859 99.6984 76.7859Z" fill="#263238" stroke="#263238" stroke-linejoin="round"/>
<path d="M101.106 77.418C101.106 77.418 98.0388 74.9626 97.8529 75.9C97.667 76.8374 98.7557 80.2001 100.741 79.4046" fill="white"/>
<path d="M101.106 77.418C101.106 77.418 98.0388 74.9626 97.8529 75.9C97.667 76.8374 98.7557 80.2001 100.741 79.4046" stroke="#263238" stroke-linejoin="round"/>
<path d="M84.0913 84.5778C84.0913 84.5778 86.4745 85.068 92.2168 85.842C97.9591 86.616 102.838 87.3857 102.838 87.3857C102.838 87.3857 101.325 84.4358 99.6984 83.8768C98.072 83.3178 89.4021 82.1912 88.32 82.26C87.238 82.3288 84.0913 84.5778 84.0913 84.5778Z" fill="white" stroke="#263238" stroke-linejoin="round"/>
<path d="M120.822 104.165C120.822 104.165 130.687 98.4113 131.225 98.0587C131.762 97.7061 130.561 94.9712 130.561 94.5498C130.561 94.1283 132.838 93.4231 132.838 93.4231C132.838 93.4231 133.163 92.3008 134.245 92.3008C135.327 92.3008 137.173 93.2124 137.173 93.2124L137.392 93.9864C137.392 93.9864 138.905 96.1623 138.905 96.5149C138.755 97.2612 138.222 97.9532 137.392 98.4801C136.31 99.181 133.814 100.656 133.814 100.656C133.814 100.656 125.144 108.237 123.192 109.291C121.24 110.344 118.638 111.467 117.662 110.207C116.686 108.947 120.822 104.165 120.822 104.165Z" fill="white" stroke="#263238" stroke-linejoin="round"/>
<path d="M132.864 93.4231L133.19 93.9864L132.32 94.4078" stroke="#263238" stroke-linejoin="round"/>
<path d="M58.5132 95.9517C58.5132 95.9517 54.716 98.4801 54.935 99.5337C55.1541 100.587 63.9302 112.309 63.9302 112.309C63.9302 112.309 64.594 114.068 65.0123 114.206C65.4305 114.343 66.4196 115.401 66.4196 115.401C66.4196 115.401 66.4196 116.313 68.0461 115.328C69.6725 114.343 71.9495 113.225 71.8433 112.318C71.7161 111.713 71.298 111.148 70.6484 110.705C70.6484 110.705 70.1106 109.845 69.5663 109.794C69.0219 109.742 66.5325 109.721 66.5325 109.721L63.731 100.166L58.5132 95.9517Z" fill="white" stroke="#263238" stroke-linejoin="round"/>
<path d="M67.3955 111.398L68.8095 111.888C68.8095 111.888 67.0702 113.574 67.7208 113.926C68.3714 114.279 70.3231 111.75 70.5422 111.398C70.7612 111.045 70.2169 110.697 70.2169 110.697" fill="white"/>
<path d="M67.3955 111.398L68.8095 111.888C68.8095 111.888 67.0702 113.574 67.7208 113.926C68.3714 114.279 70.3231 111.75 70.5422 111.398C70.7612 111.045 70.2169 110.697 70.2169 110.697" stroke="#263238" stroke-linejoin="round"/>
<path d="M68.2651 112.03L65.4437 113.647" stroke="#263238" stroke-linejoin="round"/>
<path d="M72.8921 147.442L65.8619 151.389C66.1309 151.85 66.6252 152.241 67.2693 152.503C68.2053 152.808 72.2681 155.341 73.5161 155.844C75.766 156.77 78.3541 157.294 81.0176 157.362C84.3369 157.362 84.9277 156.554 84.9277 156.248C84.9277 155.943 78.5216 153.212 78.5216 153.212L77.1142 149.57L72.8921 147.442Z" fill="white" stroke="#263238" stroke-linejoin="round"/>
<path d="M67.2759 150.598L65.8619 151.389C66.1309 151.85 66.6252 152.241 67.2693 152.503C68.2053 152.808 72.2681 155.341 73.5161 155.844C75.766 156.77 78.3541 157.294 81.0176 157.362C82.9428 157.362 83.9452 157.087 84.4564 156.794C83.0392 156.575 81.5993 156.423 80.148 156.339C77.9971 156.339 75.6272 155.087 75.6272 155.087L67.2759 150.598Z" fill="white" stroke="#263238" stroke-linejoin="round"/>
<path d="M70.6483 108.026C70.6483 108.026 69.1215 113.187 70.4956 114.816C71.5986 116.053 72.8226 117.242 74.1601 118.377L93.6374 134.554L72.5602 147.764L77.4262 150.985C77.4262 150.985 103.98 136.794 105.554 136.188C107.127 135.582 105.554 130.546 105.095 130.103C104.637 129.661 95.4829 116.687 95.4829 116.687L96.3393 110.908L70.6483 108.026Z" fill="#263238" stroke="#263238" stroke-linejoin="round"/>
<path d="M84.7751 154.46C84.7751 154.46 89.5083 157.874 90.2651 158.222C91.0219 158.57 96.3925 160.592 96.3925 160.592C96.3925 160.592 96.2862 161.077 95.8547 161.151C95.4232 161.224 84.7751 161.288 84.0249 161.219C83.2748 161.151 77.008 159.005 76.2778 158.777C75.204 158.396 74.1625 157.978 73.1577 157.526L77.891 152.576L84.7751 154.46Z" fill="white" stroke="#263238" stroke-linejoin="round"/>
<path d="M76.7625 117.293L81.2766 119.387L87.7359 133.079L76.7625 153.152L86.3086 154.872L86.926 152.628L88.8246 150.271C88.8246 150.271 100.482 133.707 100.641 132.348C100.8 130.989 95.483 116.67 95.483 116.67L94.5138 110.606L77.725 109.557" fill="#263238"/>
<path d="M76.7625 117.293L81.2766 119.387L87.7359 133.079L76.7625 153.152L86.3086 154.872L86.926 152.628L88.8246 150.271C88.8246 150.271 100.482 133.707 100.641 132.348C100.8 130.989 95.483 116.67 95.483 116.67L94.5138 110.606L77.725 109.557" stroke="#263238" stroke-linejoin="round"/>
<path d="M95.8547 161.155C96.2862 161.082 96.3925 160.596 96.3925 160.596L95.4432 160.235C91.3472 160.032 84.4764 159.688 84.0249 159.688C83.5735 159.688 76.8753 157.151 74.4257 156.201L73.1577 157.53C74.1625 157.983 75.204 158.4 76.2778 158.781C77.028 158.992 83.2682 161.155 84.0249 161.224C84.7817 161.292 95.4232 161.219 95.8547 161.155Z" fill="white" stroke="#263238" stroke-linejoin="round"/>
<path d="M85.4987 84.3671C85.4987 84.3671 74.7709 85.068 74.658 85.3518C74.5452 85.6356 60.3521 95.5991 60.3521 95.5991L64.1493 100.303L73.2506 97.7792L70.6484 108.027C70.6484 108.027 68.9157 108.457 72.0557 109.501C75.1957 110.546 82.4649 111.888 87.4504 111.888C92.4359 111.888 95.2506 111.888 96.3393 110.908C97.0466 110.301 97.4267 109.561 97.4214 108.801C97.5276 108.237 102.626 99.6713 102.626 99.6713C102.626 99.6713 114.004 109.132 114.436 109.364C114.867 109.596 116.932 109.794 118.665 108.448C120.397 107.102 120.072 104.027 120.072 104.027C120.072 104.027 113.679 96.515 113.354 95.4615C113.029 94.4079 112.026 91.1613 111.402 90.3357C110.778 89.51 109.889 89.424 108.149 88.8607C106.41 88.2974 101.65 87.2482 101.65 87.2482L85.4987 84.3671Z" fill="white" stroke="#263238" stroke-linejoin="round"/>
<path d="M75.7467 87.4589L73.2506 97.7792L74.3327 88.0179" stroke="#263238" stroke-linejoin="round"/>
<path d="M72.9253 97.4954L70.1106 93.0017" stroke="#263238" stroke-linejoin="round"/>
<path d="M65.9284 94.9196L64.2555 94.266" stroke="#263238" stroke-linejoin="round"/>
<path d="M73.2507 97.7792L67.3424 95.4744" stroke="#263238" stroke-linejoin="round"/>
<path d="M107.698 94.5626L110.426 91.8105" stroke="#263238" stroke-linejoin="round"/>
<path d="M102.626 99.6712L106.835 95.4313" stroke="#263238" stroke-linejoin="round"/>
<path d="M110.831 96.2913L112.053 95.8097" stroke="#263238" stroke-linejoin="round"/>
<path d="M103.277 99.2541L109.351 96.8718" stroke="#263238" stroke-linejoin="round"/>
<path d="M102.732 99.181L113.354 97.9899" stroke="#263238" stroke-linejoin="round"/>
<path d="M72.0557 108.31L82.6839 106.625" stroke="#263238" stroke-linejoin="round"/>
<path d="M89.9265 104.281C90.6109 104.109 91.2763 103.906 91.9181 103.675" stroke="#263238" stroke-linejoin="round"/>
<path d="M76.5035 106.625C80.4914 106.134 84.4288 105.485 88.2935 104.681" stroke="#263238" stroke-linejoin="round"/>
<path d="M119.966 103.533C119.748 104.673 118.946 105.733 117.689 106.543C116.452 107.406 114.826 107.995 113.042 108.224C113.042 108.224 114.018 110.615 115.213 110.615C116.407 110.615 118.465 111.045 120.304 109.42C122.143 107.794 122.581 105.068 122.037 104.363C121.493 103.657 121.161 103.322 119.966 103.533Z" fill="white" stroke="#263238" stroke-linejoin="round"/>
<path d="M61.9784 93.9865C61.9784 93.9865 67.183 100.303 66.7449 100.437C66.3067 100.57 64.4745 101.632 63.8239 101.701C63.1734 101.77 60.2458 99.8734 59.177 98.2608C58.1082 96.6482 57.7696 96.0118 58.0949 95.7323C58.4202 95.4528 61.3278 93.9865 61.9784 93.9865Z" fill="white" stroke="#263238" stroke-linejoin="round"/>
<path d="M299.019 60.5699C299.604 58.4199 300.447 53.1092 295.448 50.499C289.108 47.1879 284.607 53.1479 279.084 48.5123C273.561 43.8768 271.928 33.8058 255.584 33.9348C239.24 34.0638 237.992 40.0324 237.992 42.0191C237.992 44.0058 233.086 45.4592 232.063 45.4592C231.041 45.4592 225.312 43.7392 223.267 47.5792C221.223 51.4192 222.604 53.6424 219.357 53.7241C216.111 53.8058 212.055 50.9333 207.647 52.3696C203.239 53.8058 203.219 56.8546 201.38 57.9125C199.541 58.9703 196.468 57.1212 192.379 58.1791C189.902 58.8198 189.152 59.8518 188.946 60.5657L299.019 60.5699Z" fill="white" stroke="black" stroke-miterlimit="10"/>
<path d="M119.939 19.0177C120.291 17.7276 120.796 14.5068 117.775 12.9286C113.945 10.9248 111.223 14.5283 107.877 11.7246C104.531 8.92091 103.562 2.8319 93.6508 2.9093C83.7395 2.9867 83.0292 6.59453 83.0292 7.79857C83.0292 9.00261 80.0552 9.88414 79.4378 9.88414C78.8204 9.88414 75.3551 8.83921 74.127 11.1742C72.8989 13.5092 73.7287 14.8422 71.7637 14.8895C69.7987 14.9368 67.3557 13.2039 64.6804 14.0725C62.0051 14.9411 62.025 16.7816 60.8898 17.4223C59.7546 18.063 57.9224 16.9407 55.4463 17.5857C54.9337 17.6848 54.4711 17.8705 54.106 18.1236C53.7408 18.3768 53.4863 18.6883 53.3684 19.0263L119.939 19.0177Z" fill="white" stroke="black" stroke-miterlimit="10"/>
<path d="M67.3823 36.2183C67.5947 35.44 67.9001 33.5135 66.0546 32.5675C63.7577 31.3634 62.1246 33.5264 60.1198 31.845C58.1149 30.1637 57.5573 26.5128 51.6225 26.5601C45.6877 26.6074 45.2429 28.7704 45.2429 29.4929C45.2429 30.2153 43.4638 30.7399 43.092 30.7399C42.7203 30.7399 40.6491 30.1164 39.9056 31.5096C39.162 32.9029 39.6666 33.707 38.4849 33.7371C37.3033 33.7672 35.8295 32.7266 34.2363 33.2469C32.643 33.7672 32.6364 34.8723 31.9659 35.2594C31.2954 35.6464 30.1868 34.9669 28.7064 35.354C28.399 35.4123 28.1213 35.5229 27.9019 35.674C27.6825 35.8252 27.5294 36.0116 27.4584 36.214L67.3823 36.2183Z" fill="white" stroke="black" stroke-miterlimit="10"/>
<path d="M276.495 111.041C276.707 110.263 277.013 108.336 275.2 107.39C272.904 106.186 271.27 108.349 269.266 106.668C267.261 104.986 266.67 101.335 260.735 101.383C254.8 101.43 254.356 103.593 254.356 104.315C254.356 105.038 252.576 105.563 252.205 105.563C251.833 105.563 249.762 104.939 249.018 106.332C248.275 107.726 248.779 108.53 247.598 108.56C246.416 108.59 244.942 107.549 243.349 108.07C241.756 108.59 241.749 109.695 241.079 110.082C240.408 110.469 239.299 109.79 237.819 110.177C237.512 110.235 237.234 110.345 237.015 110.497C236.795 110.648 236.642 110.834 236.571 111.037L276.495 111.041Z" fill="white" stroke="black" stroke-miterlimit="10"/>
<path d="M257.814 38.8628C258 38.1834 258.266 36.5021 256.686 35.6764C254.694 34.6272 253.254 36.5365 251.501 35.0443C249.748 33.5522 249.237 30.3872 244.053 30.4302C238.868 30.4732 238.483 32.361 238.483 33.0103C238.483 33.6597 236.93 34.1026 236.604 34.1026C236.279 34.1026 234.467 33.5565 233.823 34.7734C233.179 35.9903 233.61 36.6956 232.581 36.7214C231.552 36.7472 230.278 35.8355 228.877 36.2913C227.476 36.7472 227.476 37.7104 226.885 38.0458C226.295 38.3812 225.332 37.7964 224.031 38.1318C223.763 38.183 223.521 38.2799 223.331 38.4122C223.141 38.5446 223.009 38.7077 222.949 38.8843L257.814 38.8628Z" fill="white" stroke="black" stroke-miterlimit="10"/>
</svg>
